<mxfile host="app.diagrams.net" modified="2024-05-27T12:08:37.361Z" agent="Mozilla/5.0 (X11; Linux x86_64; rv:109.0) Gecko/20100101 Firefox/112.0" version="24.4.9" etag="5YyQp144tyRB0ksqMY57" type="github">
  <diagram name="PÃ¡gina-1" id="n_lapy3Vo7iyWZ_YQwE-">
    <mxGraphModel>
      <root>
        <mxCell id="0" />
        <mxCell id="1" parent="0" />
      </root>
    </mxGraphModel>
  </diagram>
</mxfile>
